<?xml version="1.0" encoding="utf-8"?>
<!-- Generator: Adobe Illustrator 24.3.0, SVG Export Plug-In . SVG Version: 6.00 Build 0)  -->
<svg version="1.1" id="Layer_1" xmlns="http://www.w3.org/2000/svg" xmlns:xlink="http://www.w3.org/1999/xlink" x="0px" y="0px"
	 viewBox="0 0 115 108" style="enable-background:new 0 0 115 108;" xml:space="preserve">
<style type="text/css">
	.st0{fill:#867DC5;}
	.st1{fill:#C9C4EB;}
	.st2{fill:#585180;}
	.st3{fill:#AAA3D7;}
	.st4{fill:#6D659D;}
	.st5{fill:#EFB456;}
	.st6{fill:#E9B25D;}
	.st7{fill:#FAF5B6;}
	.st8{fill:#FEC607;}
	.st9{fill:#FEC503;}
	.st10{fill:#FEC609;}
</style>
<g>
	<path class="st0" d="M25.7,83.7c-0.2,0-0.3-0.1-0.5-0.1c-2.3-0.6-2.5-0.8-2.4-3.2c0.2-4.4,1.1-8.6,2-12.9c0.4-1.9,0.9-3.7,1.4-5.5
		c0.5-0.1,0.8,0.3,1.1,0.6c0.8,0.7,1.4,1.5,2.3,2.1c0.7,0.5,1.4,0.7,2.3,0.3c1.3-0.5,2.6-0.7,3.9-1.3c0.2-0.1,0.5-0.2,0.7-0.3
		c1.8-1,2-1.3,1.1-3.2c-1-2.2-1.9-4.4-3.1-6.5c-0.7-1.1-0.1-2.4,0.2-3.6c0.5-1.8,1.2-3.6,2-5.3c0.5-1.1,0.8-2.2,1.3-3.3
		c0.1-0.3,0.1-0.8,0.7-0.9c0.8,0,1,0.4,1.1,1.1c0.3,2.3,0.8,4.6,1.2,6.9c0.5,1,0.6,2.1,0.8,3.2c0.6,2.6,1.2,5.2,1.9,7.9
		c0.1,0.5,0.3,0.9,0,1.4c0.8,3.1,1.5,6.2,2.3,9.3c0.7,2.6,1.1,5.2,2.1,7.7c0.3,0.7-0.1,1.2-0.8,1.5c-2.1,0.8-4.3,1.3-6.5,1.8
		c-0.3,0.3-0.8,0.5-1.2,0.5c-2.1,0.3-4.2,0.9-6.3,0.4c-0.1,0-0.2,0-0.3,0.1h0c-0.2,0.2-0.3,0.4-0.6,0.4C30,83.4,27.9,84,25.7,83.7z"
		/>
	<path class="st1" d="M52.6,31c0-3.2,0-6.5,0.6-9.7c0.1-0.6,0.4-0.9,1-1.1c1.1-0.3,2.3-0.3,3.5-0.3c4.2-0.2,8.5-0.3,12.7-0.3
		c2.6,0,2.7,0.5,2.9,2.7c0.3,2.3,0.2,4.6-0.1,6.8c-0.2,1-0.1,2.1-0.3,3.2c-0.1,0.8,0.2,1.3,0.9,1.6c0.9,0.4,1.7,0.9,2.5,1.6
		c0.3,0.2,0.6,0.5,0.4,1c-0.2,0.4-0.4,0.6-0.9,0.7c-2,0.4-4.1,0.5-6.2,0.5c-5,0.2-10,0.3-15,0.3c-1.5,0-2-0.5-2-2
		C52.6,34.2,52.6,32.6,52.6,31z"/>
	<path class="st2" d="M27.9,40.2c-2.8,0-5.6,0-8.4-0.1c-0.7,0-1.6,0.1-2-0.7c-0.4-0.8,0-1.5,0.5-2.2c0.7-1.1,1.7-1.9,2.8-2.6
		c0.9-0.5,1.8-1,2.8-1.6c-0.5-0.1-0.8-0.2-1-0.3c-2.8-0.8-4-2.7-3.3-5.5c0.4-1.8,1.3-3.5,2.7-4.7c4.2-3.8,9.1-5.6,14.8-4.5
		c0.1,0,0.2,0,0.3,0.1c1.5,0.5,2.9,1.1,3.2,2.8c0.3,1.6-0.7,2.7-1.9,3.6c-0.1,0.3-0.3,0.5-0.6,0.6c-1.7,0.8-3.4,1.2-5.3,0.8
		c-1.3-0.2-1.6-0.1-2.3,1c-0.6,1-0.6,2,0,2.9c0.5,0.6,1.1,0.9,1.8,1.1c0.7,0.2,1.3,0.3,2,0.6c0.4,0.2,0.7,0.5,0.7,1
		c0,0.5-0.4,0.7-0.8,0.9c-0.3,0.2-0.6,0.3-0.9,0.4c-2.1,1-2.4,3.1-0.6,4.9c0.4,0.5,1,0.6,1.5,0.9c0.2,0.1,0.3,0.3,0.3,0.5
		c0,0.2-0.2,0.3-0.4,0.3C31.8,40.4,29.8,40.8,27.9,40.2z"/>
	<path class="st3" d="M27.9,40.2c2,0,4,0,6.1,0c-0.7-0.7-1.6-0.7-2-1.5c0.1-0.1,0.3-0.2,0.5-0.2c1.6,0.4,3.2,0.6,4.7,1.4
		c0.4,0.3,0.9,0.5,1.3,0.8c-1.5,3.8-3.3,7.4-4.1,11.4c-0.1,0.7-0.1,1.3,0.3,2c1.6,2.3,2.3,5,3.6,7.4c0.3,0.6-0.2,1-0.6,1.3
		c-1.4,1.2-3.2,1.6-4.9,2.1c-0.2,0.1-0.5,0.1-0.7,0.2c-1.4,0.8-2.5,0.1-3.5-0.8c-0.9-0.8-1.7-1.6-2.5-2.4c-1.1-1.3-1.9-2.8-2.9-4.2
		c-0.5-0.8-0.1-1.8,0.1-2.6c0.9-4.5,2.5-8.8,4-13.1C27.5,41.4,27.7,40.8,27.9,40.2z"/>
	<path class="st3" d="M91.3,79.6c-0.5-0.3-0.4,0.2-0.4,0.4c-1,4.4-2.5,8.7-3.6,13.1c-0.2,0.8-0.6,1.3-1.3,1.5
		c-2.1,0.6-4.2,1.2-6.4,1.3c-0.8,0-1.5-0.2-1.8-1c-0.4-0.8,0-1.5,0.6-2.1c0.2-0.2,0.3-0.4,0.5-0.5c1.6-0.7,1.8-2.1,2-3.6
		c0.6-3.2,1.2-6.4,1.7-9.6c0.6-3.5,1-6.9,1.6-10.4c0.1-0.8,0.3-1.5,0.4-2.3c0.9-0.6,2-0.4,3-0.5c2.1-0.2,4.3,0.1,6.4,0.5
		c0.5,0.4,0.2,0.8,0.1,1.2c-0.8,3.4-1.5,6.8-2.3,10.2C91.5,78.3,91.7,79,91.3,79.6z"/>
	<path class="st3" d="M82.3,61.7c-0.7,0.2-1.3,0.7-1.9,1.1c-0.6,0.3-1.2,0.4-1.8,0.2c-1.4-0.4-2.5-1.2-3.8-1.9
		c-1.3-0.7-2.3-1.6-3-2.9c-0.3-0.5-0.4-1.1,0.2-1.5c1.2-1,2.7-1.2,4.1-1.4c2.4-0.4,4-1.6,5.2-3.6c1.8-3.1,3.7-6,5.6-9
		c0.3-0.5,0.5-1.1,0.4-1.7c1-1.3,2.6-2,3.9-2.8c0.3-0.2,0.6-0.3,0.9-0.5c0.5-0.2,0.9-0.3,1.4-0.5c0.6-0.1,1,0.3,1.2,0.8
		c0.3,0.4,0.7,0.7,0.6,1.3c0.1,2-0.7,3.9-1.3,5.7c-1.2,3.8-2.9,7.4-4.3,11c-0.2,0.5-0.4,0.9-0.8,1.2c-2,1.5-4,3-6.1,4.5
		C82.7,61.7,82.5,61.8,82.3,61.7z"/>
	<path class="st0" d="M82.3,61.7c2.1-1.6,4.3-3.2,6.4-4.7c0.3-0.3,0.6-0.6,0.7-1c1.5-3.8,3.1-7.7,4.5-11.5c0.6-1.7,1-3.6,1.5-5.4
		c1.5,3.1,2.2,6.4,2.9,9.8c1.1,5.2,0.7,10.5,0.2,15.7c-0.1,0.7-0.5,0.9-1,1.2c-1.1,0.7-2.2,1.1-3.5,0.6c-1.4,0-2.8-0.2-4.2-0.4
		c-1.8-0.2-3.5,0.3-5.3,0.2c-2.2-0.3-2.9-1.2-2.5-3.4C82.2,62.5,82.2,62.1,82.3,61.7z"/>
	<path class="st2" d="M93.7,37.3c-0.5,0.2-0.9,0.4-1.4,0.4c-1.4-0.2-1.9-1.2-1.3-2.7c0.4-1,0.9-1.8,1.1-2.9c0.3-1.3,0.3-1.3-1.1-1.4
		c-1.7-0.1-3.2-0.8-4.3-2.1c-0.5-0.6-0.9-0.7-1.6-0.3c-0.6,0.4-1.3,0.5-1.9,0.6c-0.6,0.1-1.2,0-1.6-0.5c-1.2-1.1-1.4-2.1-0.4-3.6
		c1.4-2.1,3.3-3.4,5.7-4.2c0.5-0.2,0.8-0.4,1-1c0.8-2.3,2.5-3.5,4.9-3.8c2.3-0.2,4.3,0.4,5.7,2.3c1.2,1.6,1,3.4-0.3,4.7
		c-0.4,0.4-0.5,0.7-0.3,1.3c0.6,1.5,0.5,3-0.6,4.3c-0.2,0.3-0.4,0.6-0.4,0.9c-0.3,2.2-1,4.2-2,6.2C94.7,36.5,94.3,37,93.7,37.3z"/>
	<path class="st4" d="M94,66.4c1.2,0.1,2.3-0.4,3.5-0.6c1,5.2,2.6,10.2,3.3,15.4c0.4,2.6,1.2,5.2,2,7.7c0.3,0.9,0,1.6-0.8,2
		c-3.1,1.3-6.2,2.5-9.5,3.3c-0.8,0.2-1.4,0-1.8-0.8c-0.4-0.8-0.2-1.4,0.5-1.9c1-0.8,1.9-1.6,3-2.3c0.5-0.4,0.5-0.7,0.3-1.2
		c-1.3-2.6-2.4-5.3-3.1-8.2c-0.4-1.3,0.2-2.5,0.5-3.7C92.5,72.8,93.3,69.6,94,66.4z"/>
	<path class="st3" d="M43.4,61.2c-0.9-3.8-1.9-7.5-2.6-11.3c-0.1-0.4-0.1-0.7-0.1-1.1c4.4,0.5,8.8,0.6,13.3,0.8
		c0.5,0,0.8,0.3,1.1,0.6c0.2,0.2,0.3,0.5,0.2,0.8c-0.3,1.3-0.4,2.7-1.1,3.9c-0.4,0.8-0.5,1.6-0.6,2.5c-0.2,1.1-0.8,1.7-1.8,2
		c-2.4,0.5-4.8,1.1-7.3,1.6C44.2,61,43.8,61.1,43.4,61.2z"/>
	<path class="st5" d="M37.1,40c-1.8-0.2-3.4-1-5.1-1.2c-2.1-1.9-1-4.5,1-5.3c0.6-0.2,1.5-0.2,1.4-1.1c-0.1-0.8-1-0.8-1.6-1
		c-0.4-0.1-0.7-0.2-1.1-0.3c-2.4-0.7-3.1-2.8-1.5-4.8c0.5-0.6,0.9-1,1.9-0.7c2.2,0.7,4.2,0,6.2-1.1c1.7,2.3,2.8,4.7,2.8,7.5
		c0,2.4-1.1,4.1-3.4,4.9c-0.9,0.3-1,0.7-0.8,1.5C37,38.9,37,39.4,37.1,40z"/>
	<path class="st5" d="M81.5,28.5c1.5,0.6,2.7,0.1,3.9-0.7c0.4-0.2,0.5-0.4,0.8,0.1c1.3,1.8,3.1,2.7,5.3,2.6c0.6,0,0.9,0,0.8,0.8
		c-0.2,1.2-0.5,2.2-1.1,3.3c-0.8,1.5-0.6,2.2,0.9,3c-1.6,1-3.3,2.1-4.9,3.1c-0.1-1.2,0.5-2.2,0.7-3.4c-0.3-0.3-0.6-0.1-0.8-0.1
		c-4.6,0.1-7.2-3.3-6-7.7C81.3,29.3,81.4,28.9,81.5,28.5z"/>
	<path class="st3" d="M32.7,82.5c0.1-0.2,0.3-0.2,0.4-0.2c2.5,0.1,4.9-0.4,7.4-0.8c-0.3,2.1-0.5,4.2-0.8,6.3
		c-0.1,0.6,0.1,0.9,0.8,0.9c0.9,0,1.8,0.2,2.6,0.5c0.6,0.2,1.1,0.5,1.1,1.3c0,0.8-0.4,1.2-1,1.5c-1.2,0.5-2.5,0.6-3.8,0.6
		c-1.1,0-2.2-0.2-3.2-0.4c-0.7-0.1-1-0.6-1.2-1.2c-0.6-2.5-1-5-1.4-7.5C33.4,82.9,33.4,82.3,32.7,82.5z"/>
	<path class="st3" d="M25.7,83.7c1.4-0.4,2.9-0.2,4.3-0.6c0.9-0.3,1.8-0.4,2.7-0.6c-0.1,1.6-0.4,3.2-0.8,4.7
		c-0.1,0.5-0.1,0.9,0.5,1.1c0.5,0.2,0.9,0.5,1.3,0.8c0.4,0.3,0.5,0.6,0.4,1.1c-0.1,0.5-0.4,0.8-0.9,0.9c-1.6,0.3-3.2,0.3-4.8,0.2
		c-0.7-0.1-1.3-0.5-1.5-1.3C26.2,87.8,26,85.8,25.7,83.7z"/>
	<path class="st5" d="M54.2,54.9c0-1,0.3-1.8,0.6-2.8c0.2-0.6,0.3-1.3,0.3-1.9c0.8-0.3,1.6-0.6,2.4-0.8c1.1-0.2,2.1,0.3,2.6,1.1
		c0.5,0.9,0.3,1.9-0.6,2.8C58,54.7,56.1,54.9,54.2,54.9z"/>
	<path class="st5" d="M72,56.6c-0.6,1.4,0.5,2.2,1.3,3.1c0.4,0.5,1,0.9,1.5,1.4c-1.8,0.8-3.6,0.9-5.3-0.2c-1.3-0.8-1.9-2-1.5-3.2
		c0.4-1.1,1.4-1.5,3.1-1.3C71.4,56.4,71.7,56.5,72,56.6z"/>
	<path class="st6" d="M93.7,37.3c0.4-0.5,0.8-1,1.1-1.4c0,0.7,0,1.4,0,2.1C94.4,37.7,94.2,37.2,93.7,37.3z"/>
	<path class="st7" d="M63.8,23.8c0.7-0.1,1.4,0.3,2.1,0.7c1.3,0.9,2.5,3.9,1.5,5.7c-1,1.8-3.3,3-5.4,2.4c-3.7-1.2-4.2-4.1-1.7-7.2
		C61.1,24.3,62.3,23.7,63.8,23.8z"/>
	<path class="st8" d="M62.2,27.3c-0.1,0.7-0.6,1.1-1.3,1.3c-0.4,0.1-0.6-0.1-0.6-0.5c0-0.8,0.5-1.3,1.2-1.5
		C62,26.6,62.2,26.9,62.2,27.3z"/>
	<path class="st9" d="M65.7,28.3c-0.6-0.1-0.9-0.5-1-1.1c-0.1-0.4,0.2-0.8,0.6-0.8c0.6,0,0.9,0.5,1,1.1C66.4,28,66.2,28.3,65.7,28.3
		z"/>
	<path class="st10" d="M63.4,29.8c-0.5,0.2-0.4,0.9-0.9,1c-0.3-0.3-0.1-0.5,0-0.7c0.2-0.5,0.4-1.2,1-1c0.7,0.2,0.8,1,0.8,1.6
		c0,0.1-0.1,0.3-0.2,0.3c-0.2,0.1-0.3-0.1-0.4-0.3C63.6,30.5,63.6,30.1,63.4,29.8z"/>
</g>
</svg>
